<?xml version="1.0" encoding="utf-8"?>
<svg version="1.1" xmlns:xlink="http://www.w3.org/1999/xlink" width="23px" height="26px" xmlns="http://www.w3.org/2000/svg">
  <g transform="matrix(1 0 0 1 -972 -350 )">
    <path d="M 13.042317708333332 17.756510416666664  C 13.132161458333332 17.858072916666664  13.177083333333332 17.98784722222222  13.177083333333332 18.145833333333336  L 13.177083333333332 20.854166666666668  C 13.177083333333332 21.01215277777778  13.132161458333332 21.141927083333332  13.042317708333332 21.243489583333332  C 12.952473958333332 21.345052083333332  12.83767361111111 21.395833333333332  12.697916666666668 21.395833333333332  L 10.302083333333334 21.395833333333332  C 10.162326388888891 21.395833333333332  10.047526041666666 21.345052083333332  9.957682291666666 21.243489583333332  C 9.867838541666666 21.141927083333332  9.822916666666666 21.01215277777778  9.822916666666666 20.854166666666668  L 9.822916666666666 18.145833333333336  C 9.822916666666666 17.98784722222222  9.867838541666666 17.858072916666664  9.957682291666666 17.756510416666664  C 10.047526041666666 17.654947916666664  10.162326388888891 17.604166666666664  10.302083333333334 17.604166666666664  L 12.697916666666668 17.604166666666664  C 12.83767361111111 17.604166666666664  12.952473958333332 17.654947916666664  13.042317708333332 17.756510416666664  Z M 15.370768229166668 6.119140625  C 16.4638671875 7.1291232638888875  17.010416666666668 8.33940972222222  17.010416666666668 9.75  C 17.010416666666668 10.31423611111111  16.935546875 10.82204861111111  16.785807291666668 11.2734375  C 16.636067708333332 11.724826388888888  16.408962673611114 12.114149305555555  16.1044921875 12.44140625  C 15.80002170138889 12.768663194444443  15.54047309027778 13.016927083333336  15.325846354166668 13.186197916666664  C 15.111219618055557 13.35546875  14.814236111111114 13.55859375  14.434895833333332 13.795572916666664  C 14.11545138888889 13.998697916666664  13.883355034722225 14.156684027777775  13.738606770833332 14.26953125  C 13.593858506944446 14.38237847222222  13.46408420138889 14.51779513888889  13.349283854166668 14.67578125  C 13.234483506944446 14.83376736111111  13.177083333333332 14.997395833333336  13.177083333333332 15.166666666666664  L 13.177083333333332 15.708333333333336  C 13.177083333333332 15.866319444444445  13.132161458333332 15.99609375  13.042317708333332 16.09765625  C 12.952473958333332 16.19921875  12.83767361111111 16.25  12.697916666666668 16.25  L 10.302083333333334 16.25  C 10.162326388888891 16.25  10.047526041666666 16.19921875  9.957682291666666 16.09765625  C 9.867838541666666 15.99609375  9.822916666666666 15.866319444444445  9.822916666666666 15.708333333333336  L 9.822916666666666 14.557291666666664  C 9.822916666666666 14.16232638888889  9.875325520833334 13.79839409722222  9.980143229166666 13.465494791666664  C 10.0849609375 13.13259548611111  10.204752604166666 12.864583333333332  10.339518229166666 12.661458333333332  C 10.474283854166666 12.458333333333332  10.6689453125 12.258029513888888  10.923502604166666 12.060546875  C 11.178059895833334 11.86306423611111  11.382703993055557 11.719184027777777  11.537434895833332 11.62890625  C 11.692165798611114 11.538628472222223  11.91427951388889 11.420138888888888  12.203776041666668 11.2734375  C 12.732855902777779 10.991319444444443  13.10720486111111 10.748697916666668  13.326822916666668 10.545572916666668  C 13.546440972222225 10.342447916666668  13.656250000000002 10.065972222222223  13.65625 9.716145833333332  C 13.656250000000002 9.242187499999996  13.439127604166668 8.838758680555552  13.0048828125 8.505859375  C 12.570638020833336 8.172960069444443  12.09396701388889 8.006510416666668  11.574869791666668 8.006510416666668  C 11.015842013888891 8.006510416666668  10.541666666666666 8.158854166666668  10.15234375 8.463541666666668  C 9.862847222222223 8.68923611111111  9.463541666666666 9.157552083333332  8.954427083333334 9.868489583333332  C 8.864583333333334 10.003906249999996  8.739800347222223 10.071614583333332  8.580078125 10.071614583333332  C 8.470269097222223 10.071614583333332  8.375434027777779 10.037760416666664  8.295572916666666 9.970052083333332  L 6.678385416666666 8.58203125  C 6.578559027777779 8.503038194444443  6.518663194444445 8.39019097222222  6.498697916666666 8.243489583333332  C 6.47873263888889 8.096788194444443  6.5036892361111125 7.9670138888888875  6.573567708333334 7.854166666666668  C 7.791449652777779 5.6875  9.533420138888891 4.604166666666668  11.799479166666668 4.604166666666668  C 13.087239583333332 4.604166666666668  14.277669270833332 5.10915798611111  15.370768229166668 6.119140625  Z M 15.221028645833332 3.029947916666668  C 14.0380859375 2.454427083333332  12.797743055555557 2.166666666666668  11.5 2.166666666666668  C 10.202256944444445 2.166666666666668  8.9619140625 2.454427083333332  7.778971354166666 3.029947916666668  C 6.596028645833334 3.60546875  5.577799479166667 4.375651041666668  4.724283854166667 5.340494791666668  C 3.870768229166667 6.305338541666668  3.189453125 7.456380208333332  2.6803385416666665 8.793619791666668  C 2.1712239583333335 10.130859375  1.9166666666666665 11.53298611111111  1.9166666666666665 13  C 1.9166666666666665 14.46701388888889  2.1712239583333335 15.869140625  2.6803385416666665 17.206380208333336  C 3.189453125 18.543619791666664  3.870768229166667 19.694661458333332  4.724283854166667 20.659505208333332  C 5.577799479166667 21.624348958333332  6.596028645833334 22.39453125  7.778971354166666 22.970052083333332  C 8.9619140625 23.545572916666668  10.202256944444445 23.833333333333332  11.5 23.833333333333332  C 12.797743055555557 23.833333333333332  14.0380859375 23.545572916666668  15.221028645833332 22.970052083333332  C 16.403971354166668 22.39453125  17.422200520833332 21.624348958333332  18.275716145833332 20.659505208333332  C 19.129231770833332 19.694661458333332  19.810546875 18.543619791666664  20.319661458333332 17.206380208333336  C 20.828776041666668 15.869140625  21.083333333333332 14.46701388888889  21.083333333333332 13  C 21.083333333333332 11.53298611111111  20.828776041666668 10.130859375  20.319661458333332 8.793619791666668  C 19.810546875 7.456380208333332  19.129231770833332 6.305338541666668  18.275716145833332 5.340494791666668  C 17.422200520833332 4.375651041666668  16.403971354166668 3.60546875  15.221028645833332 3.029947916666668  Z M 21.457682291666668 6.474609375  C 22.485894097222218 8.46636284722222  23 10.641493055555552  23 13  C 23 15.358506944444445  22.485894097222218 17.533637152777775  21.457682291666668 19.525390625  C 20.429470486111114 21.51714409722222  19.03439670138889 23.09418402777778  17.2724609375 24.256510416666668  C 15.510525173611114 25.418836805555557  13.586371527777779 26  11.5 26  C 9.413628472222223 26  7.489474826388889 25.418836805555557  5.7275390625 24.256510416666668  C 3.9656032986111116 23.09418402777778  2.5705295138888893 21.51714409722222  1.5423177083333335 19.525390625  C 0.5141059027777777 17.533637152777775  0 15.358506944444445  0 13  C 0 10.641493055555552  0.5141059027777777 8.46636284722222  1.5423177083333335 6.474609375  C 2.5705295138888893 4.482855902777778  3.9656032986111116 2.9058159722222197  5.7275390625 1.7434895833333324  C 7.489474826388889 0.5811631944444422  9.413628472222223 0  11.5 0  C 13.586371527777779 0  15.510525173611114 0.5811631944444422  17.2724609375 1.7434895833333324  C 19.03439670138889 2.9058159722222197  20.429470486111114 4.482855902777778  21.457682291666668 6.474609375  Z " fill-rule="nonzero" fill="#000000" stroke="none" transform="matrix(1 0 0 1 972 350 )" />
  </g>
</svg>