<?xml version="1.0" encoding="utf-8"?>
<svg version="1.1" xmlns:xlink="http://www.w3.org/1999/xlink" width="21px" height="25px" xmlns="http://www.w3.org/2000/svg">
  <g transform="matrix(1 0 0 1 -712 -368 )">
    <path d="M 1.6153846153846154 19.19642857142857  L 1.6153846153846154 23.214285714285715  L 5.25 23.214285714285715  L 5.25 19.19642857142857  L 1.6153846153846154 19.19642857142857  Z M 6.0576923076923075 19.19642857142857  L 6.0576923076923075 23.214285714285715  L 10.096153846153847 23.214285714285715  L 10.096153846153847 19.19642857142857  L 6.0576923076923075 19.19642857142857  Z M 1.6153846153846154 13.839285714285715  L 1.6153846153846154 18.30357142857143  L 5.25 18.30357142857143  L 5.25 13.839285714285715  L 1.6153846153846154 13.839285714285715  Z M 6.0576923076923075 13.839285714285715  L 6.0576923076923075 18.30357142857143  L 10.096153846153847 18.30357142857143  L 10.096153846153847 13.839285714285715  L 6.0576923076923075 13.839285714285715  Z M 1.6153846153846154 8.928571428571427  L 1.6153846153846154 12.94642857142857  L 5.25 12.94642857142857  L 5.25 8.928571428571427  L 1.6153846153846154 8.928571428571427  Z M 10.903846153846155 19.19642857142857  L 10.903846153846155 23.214285714285715  L 14.942307692307693 23.214285714285715  L 14.942307692307693 19.19642857142857  L 10.903846153846155 19.19642857142857  Z M 6.0576923076923075 8.928571428571427  L 6.0576923076923075 12.94642857142857  L 10.096153846153847 12.94642857142857  L 10.096153846153847 8.928571428571427  L 6.0576923076923075 8.928571428571427  Z M 15.75 19.19642857142857  L 15.75 23.214285714285715  L 19.384615384615387 23.214285714285715  L 19.384615384615387 19.19642857142857  L 15.75 19.19642857142857  Z M 10.903846153846155 13.839285714285715  L 10.903846153846155 18.30357142857143  L 14.942307692307693 18.30357142857143  L 14.942307692307693 13.839285714285715  L 10.903846153846155 13.839285714285715  Z M 6.341646634615384 6.563895089285715  C 6.421574519230769 6.475539434523808  6.461538461538462 6.3709077380952355  6.461538461538462 6.25  L 6.461538461538462 2.2321428571428577  C 6.461538461538462 2.111235119047619  6.421574519230769 2.0066034226190466  6.341646634615384 1.9182477678571423  C 6.261718750000001 1.8298921130952355  6.167067307692308 1.785714285714285  6.0576923076923075 1.785714285714285  L 5.25 1.785714285714285  C 5.140625 1.785714285714285  5.045973557692308 1.8298921130952355  4.966045673076923 1.9182477678571423  C 4.886117788461537 2.0066034226190466  4.846153846153847 2.111235119047619  4.846153846153847 2.2321428571428577  L 4.846153846153847 6.25  C 4.846153846153847 6.3709077380952355  4.886117788461537 6.475539434523808  4.966045673076923 6.563895089285715  C 5.045973557692308 6.6522507440476195  5.140625 6.696428571428573  5.25 6.696428571428573  L 6.0576923076923075 6.696428571428573  C 6.167067307692308 6.696428571428573  6.261718750000001 6.6522507440476195  6.341646634615384 6.563895089285715  Z M 15.75 13.839285714285715  L 15.75 18.30357142857143  L 19.384615384615387 18.30357142857143  L 19.384615384615387 13.839285714285715  L 15.75 13.839285714285715  Z M 10.903846153846155 8.928571428571427  L 10.903846153846155 12.94642857142857  L 14.942307692307693 12.94642857142857  L 14.942307692307693 8.928571428571427  L 10.903846153846155 8.928571428571427  Z M 15.75 8.928571428571427  L 15.75 12.94642857142857  L 19.384615384615387 12.94642857142857  L 19.384615384615387 8.928571428571427  L 15.75 8.928571428571427  Z M 16.033954326923077 6.563895089285715  C 16.113882211538463 6.475539434523808  16.153846153846153 6.3709077380952355  16.153846153846153 6.25  L 16.153846153846153 2.2321428571428577  C 16.153846153846153 2.111235119047619  16.113882211538463 2.0066034226190466  16.033954326923077 1.9182477678571423  C 15.954026442307693 1.8298921130952355  15.859375 1.785714285714285  15.75 1.785714285714285  L 14.942307692307693 1.785714285714285  C 14.832932692307695 1.785714285714285  14.738281250000002 1.8298921130952355  14.658353365384615 1.9182477678571423  C 14.578425480769232 2.0066034226190466  14.538461538461538 2.111235119047619  14.538461538461538 2.2321428571428577  L 14.538461538461538 6.25  C 14.538461538461538 6.3709077380952355  14.578425480769232 6.475539434523808  14.658353365384615 6.563895089285715  C 14.738281250000002 6.6522507440476195  14.832932692307695 6.696428571428573  14.942307692307693 6.696428571428573  L 15.75 6.696428571428573  C 15.859375 6.696428571428573  15.954026442307693 6.6522507440476195  16.033954326923077 6.563895089285715  Z M 20.520432692307693 4.1015625  C 20.840144230769234 4.4549851190476195  21 4.873511904761904  21 5.357142857142858  L 21 23.214285714285715  C 21 23.697916666666668  20.840144230769234 24.116443452380953  20.520432692307693 24.469866071428573  C 20.200721153846157 24.82328869047619  19.822115384615387 25  19.384615384615387 25  L 1.6153846153846154 25  C 1.1778846153846156 25  0.7992788461538463 24.82328869047619  0.47956730769230765 24.469866071428573  C 0.15985576923076922 24.116443452380953  0 23.697916666666668  0 23.214285714285715  L 0 5.357142857142858  C 0 4.873511904761904  0.15985576923076922 4.4549851190476195  0.47956730769230765 4.1015625  C 0.7992788461538463 3.748139880952378  1.1778846153846156 3.5714285714285725  1.6153846153846154 3.5714285714285725  L 3.230769230769231 3.5714285714285725  L 3.230769230769231 2.2321428571428577  C 3.230769230769231 1.6183035714285725  3.428485576923077 1.092819940476189  3.823918269230769 0.6556919642857151  C 4.219350961538463 0.21856398809523836  4.694711538461538 0  5.25 0  L 6.0576923076923075 0  C 6.612980769230769 0  7.088341346153848 0.21856398809523836  7.483774038461538 0.6556919642857151  C 7.879206730769232 1.092819940476189  8.076923076923077 1.6183035714285725  8.076923076923077 2.2321428571428577  L 8.076923076923077 3.5714285714285725  L 12.923076923076923 3.5714285714285725  L 12.923076923076923 2.2321428571428577  C 12.923076923076923 1.6183035714285725  13.12079326923077 1.092819940476189  13.516225961538462 0.6556919642857151  C 13.911658653846157 0.21856398809523836  14.387019230769232 0  14.942307692307693 0  L 15.75 0  C 16.305288461538463 0  16.78064903846154 0.21856398809523836  17.17608173076923 0.6556919642857151  C 17.571514423076927 1.092819940476189  17.76923076923077 1.6183035714285725  17.76923076923077 2.2321428571428577  L 17.76923076923077 3.5714285714285725  L 19.384615384615387 3.5714285714285725  C 19.822115384615387 3.5714285714285725  20.200721153846157 3.748139880952378  20.520432692307693 4.1015625  Z " fill-rule="nonzero" fill="#000000" stroke="none" transform="matrix(1 0 0 1 712 368 )" />
  </g>
</svg>