<?xml version="1.0" encoding="utf-8"?>
<svg version="1.1" xmlns:xlink="http://www.w3.org/1999/xlink" width="22px" height="21px" xmlns="http://www.w3.org/2000/svg">
  <g transform="matrix(1 0 0 1 -1051 -148 )">
    <path d="M 10.260089686098656 15.75  L 10.95067264573991 15.75  L 12.38116591928251 14.019886363636363  L 10.506726457399102 11.752840909090907  L 9.076233183856504 13.482954545454547  L 9.076233183856504 14.31818181818182  L 10.260089686098656 14.31818181818182  L 10.260089686098656 15.75  Z M 16.364349775784753 5.503551136363637  C 16.50411061285501 5.334517045454543  16.508221225710017 5.170454545454543  16.376681614349778 5.011363636363637  C 16.24514200298954 4.852272727272725  16.10949177877429 4.857244318181817  15.969730941704036 5.02627840909091  L 11.653587443946188 10.246448863636363  C 11.513826606875934 10.415482954545455  11.509715994020926 10.579545454545451  11.641255605381165 10.738636363636363  C 11.772795216741407 10.897727272727272  11.908445440956653 10.89275568181818  12.048206278026907 10.723721590909093  L 16.364349775784753 5.503551136363637  Z M 17.116591928251122 13.438210227272727  C 17.28101644245142 13.51775568181818  17.36322869955157 13.66193181818182  17.36322869955157 13.870738636363637  L 17.36322869955157 16.704545454545453  C 17.36322869955157 17.88778409090909  17.01588191330344 18.899502840909093  16.321188340807176 19.739701704545453  C 15.626494768310913 20.579900568181817  14.789985052316892 21  13.811659192825113 21  L 3.5515695067264574 21  C 2.573243647234679 21  1.7367339312406578 20.579900568181817  1.0420403587443945 19.739701704545453  C 0.3473467862481315 18.899502840909093  0 17.88778409090909  0 16.704545454545453  L 0 4.295454545454547  C 0 3.1122159090909065  0.3473467862481315 2.1004971590909083  1.0420403587443945 1.2602982954545463  C 1.7367339312406578 0.42009943181817977  2.573243647234679 0  3.5515695067264574 0  L 13.811659192825113 0  C 14.329596412556056 0  14.810538116591928 0.1242897727272716  15.254484304932737 0.3728693181818171  C 15.377802690582959 0.4424715909090895  15.451793721973093 0.5568181818181813  15.47645739910314 0.7159090909090903  C 15.501121076233183 0.8849431818181813  15.464125560538116 1.029119318181817  15.365470852017935 1.1484375  L 14.761210762331839 1.8792613636363633  C 14.64611360239163 2.0184659090909083  14.51457399103139 2.0582386363636367  14.366591928251122 1.9985795454545463  C 14.177503736920778 1.9389204545454537  13.992526158445441 1.9090909090909096  13.811659192825113 2  L 3.5515695067264574 2  C 3.008968609865471 1.9090909090909096  2.5444693572496266 2.14275568181818  2.158071748878924 2.6100852272727266  C 1.7716741405082215 3.0774147727272716  1.5784753363228698 3.6392045454545463  2 4.295454545454547  L 2 16.704545454545453  C 1.5784753363228698 17.360795454545453  1.7716741405082215 17.922585227272723  2.158071748878924 18.389914772727273  C 2.5444693572496266 18.857244318181817  3.008968609865471 19.09090909090909  3.5515695067264574 19  L 13.811659192825113 19  C 14.354260089686099 19.09090909090909  14.818759342301943 18.857244318181817  15.205156950672647 18.389914772727273  C 15.591554559043349 17.922585227272723  15.784753363228699 17.360795454545453  15.784753363228699 16.704545454545453  L 15.784753363228699 14.825284090909093  C 15.784753363228699 14.696022727272725  15.821748878923767 14.586647727272727  15.895739910313901 14.497159090909093  L 16.684977578475337 13.542613636363637  C 16.80829596412556 13.393465909090907  16.952167414050823 13.358664772727272  17.116591928251122 13.438210227272727  Z M 7.8923766816143495 12.886363636363637  L 16.179372197309416 2.8636363636363633  L 19.730941704035875 7.15909090909091  L 11.443946188340806 17.18181818181818  L 7.8923766816143495 17.18181818181818  L 7.8923766816143495 12.886363636363637  Z M 22 3.818181818181817  C 22 4.21590909090909  21.88490284005979 4.553977272727272  21.654708520179373 4.832386363636363  L 20.520179372197312 6.204545454545453  L 16.968609865470853 1.9090909090909096  L 18.103139013452918 0.5369318181818171  C 18.333333333333336 0.2585227272727253  18.612855007473843 0.11931818181818288  18.94170403587444 0.11931818181818288  C 19.27055306427504 0.11931818181818288  19.550074738415546 0.2585227272727253  19.780269058295964 0.5369318181818171  L 21.654708520179373 2.8039772727272734  C 21.88490284005979 3.08238636363636  22 3.420454545454545  22 3.818181818181817  Z " fill-rule="nonzero" fill="#000000" stroke="none" transform="matrix(1 0 0 1 1051 148 )" />
  </g>
</svg>