<?xml version="1.0" encoding="utf-8"?>
<svg version="1.1" xmlns:xlink="http://www.w3.org/1999/xlink" width="21px" height="19px" xmlns="http://www.w3.org/2000/svg">
  <g transform="matrix(1 0 0 1 -783 -149 )">
    <path d="M 16.365234375 10.848307291666668  C 16.538411458333332 10.691623263888888  16.625 10.506076388888888  16.625 10.291666666666668  L 16.625 8.708333333333334  C 16.625 8.49392361111111  16.538411458333332 8.30837673611111  16.365234375 8.151692708333334  C 16.192057291666668 7.995008680555556  15.986979166666668 7.916666666666666  15.75 7.916666666666666  L 12.25 7.916666666666666  L 12.25 4.75  C 12.25 4.535590277777776  12.163411458333336 4.350043402777776  11.990234375 4.193359375  C 11.817057291666668 4.036675347222222  11.611979166666668 3.958333333333334  11.375 3.958333333333334  L 9.625 3.958333333333334  C 9.388020833333334 3.958333333333334  9.182942708333334 4.036675347222222  9.009765625 4.193359375  C 8.836588541666668 4.350043402777776  8.75 4.535590277777776  8.75 4.75  L 8.75 7.916666666666666  L 5.25 7.916666666666666  C 5.013020833333334 7.916666666666666  4.807942708333334 7.995008680555556  4.634765625 8.151692708333334  C 4.461588541666667 8.30837673611111  4.375 8.49392361111111  4.375 8.708333333333334  L 4.375 10.291666666666668  C 4.375 10.506076388888888  4.461588541666667 10.691623263888888  4.634765625 10.848307291666668  C 4.807942708333334 11.004991319444445  5.013020833333334 11.083333333333332  5.25 11.083333333333332  L 8.75 11.083333333333332  L 8.75 14.25  C 8.75 14.464409722222221  8.836588541666668 14.649956597222221  9.009765625 14.806640625  C 9.182942708333334 14.963324652777779  9.388020833333334 15.041666666666666  9.625 15.041666666666666  L 11.375 15.041666666666666  C 11.611979166666668 15.041666666666666  11.817057291666668 14.963324652777779  11.990234375 14.806640625  C 12.163411458333336 14.649956597222221  12.25 14.464409722222221  12.25 14.25  L 12.25 11.083333333333332  L 15.75 11.083333333333332  C 15.986979166666668 11.083333333333332  16.192057291666668 11.004991319444445  16.365234375 10.848307291666668  Z M 19.591796875 4.7314453125  C 20.530598958333332 6.186957465277776  21 7.776475694444442  21 9.5  C 21 11.223524305555555  20.530598958333332 12.81304253472222  19.591796875 14.2685546875  C 18.652994791666668 15.724066840277779  17.379231770833332 16.87651909722222  15.7705078125 17.725911458333336  C 14.161783854166668 18.575303819444446  12.404947916666668 19  10.5 19  C 8.595052083333334 19  6.838216145833334 18.575303819444446  5.2294921875 17.725911458333336  C 3.620768229166667 16.87651909722222  2.3470052083333335 15.724066840277779  1.408203125 14.2685546875  C 0.46940104166666663 12.81304253472222  0 11.223524305555555  0 9.5  C 0 7.776475694444442  0.46940104166666663 6.186957465277776  1.408203125 4.7314453125  C 2.3470052083333335 3.275933159722222  3.620768229166667 2.123480902777776  5.2294921875 1.274088541666666  C 6.838216145833334 0.4246961805555539  8.595052083333334 0  10.5 0  C 12.404947916666668 0  14.161783854166668 0.4246961805555539  15.7705078125 1.274088541666666  C 17.379231770833332 2.123480902777776  18.652994791666668 3.275933159722222  19.591796875 4.7314453125  Z " fill-rule="nonzero" fill="#000000" stroke="none" transform="matrix(1 0 0 1 783 149 )" />
  </g>
</svg>