<?xml version="1.0" encoding="utf-8"?>
<svg version="1.1" xmlns:xlink="http://www.w3.org/1999/xlink" width="23px" height="17px" xmlns="http://www.w3.org/2000/svg">
  <g transform="matrix(1 0 0 1 -922 -150 )">
    <path d="M 17.07672991071429 13.31814236111111  C 18.792317708333336 12.12282986111111  20.219122023809526 10.516782407407405  21.357142857142858 8.5  C 20.05654761904762 6.1782407407407405  18.426525297619047 4.441840277777778  16.467075892857142 3.2907986111111103  C 16.989025297619047 4.313946759259258  17.25 5.420717592592592  17.25 6.611111111111111  C 17.25 8.431134259259258  16.68740699404762 9.987991898148147  15.562220982142858 11.281684027777777  C 14.437034970238097 12.575376157407405  13.08296130952381 13.222222222222223  11.5 13.222222222222223  C 9.917038690476192 13.222222222222223  8.562965029761907 12.575376157407405  7.437779017857143 11.281684027777777  C 6.312593005952382 9.987991898148147  5.75 8.431134259259258  5.75 6.611111111111111  C 5.75 5.420717592592592  6.010974702380953 4.313946759259258  6.532924107142857 3.2907986111111103  C 4.573474702380953 4.441840277777778  2.9434523809523814 6.1782407407407405  1.6428571428571428 8.5  C 2.7808779761904767 10.516782407407405  4.207682291666667 12.12282986111111  5.923270089285714 13.31814236111111  C 7.638857886904763 14.51345486111111  9.497767857142856 15.11111111111111  11.5 15.11111111111111  C 13.502232142857142 15.11111111111111  15.36114211309524 14.51345486111111  17.07672991071429 13.31814236111111  Z M 11.936383928571429 3.3350694444444446  C 12.056175595238097 3.1973379629629632  12.116071428571429 3.0300925925925917  12.116071428571429 2.8333333333333326  C 12.116071428571429 2.6365740740740735  12.056175595238097 2.4693287037037024  11.936383928571429 2.3315972222222223  C 11.816592261904765 2.1938657407407387  11.671130952380953 2.1249999999999982  11.5 2.125  C 10.430431547619047 2.1249999999999982  9.512741815476192 2.5652488425925917  8.746930803571429 3.4457465277777777  C 7.981119791666668 4.326244212962964  7.598214285714286 5.3813657407407405  7.598214285714286 6.611111111111111  C 7.598214285714286 6.807870370370369  7.65811011904762 6.9751157407407405  7.777901785714286 7.112847222222222  C 7.897693452380953 7.250578703703702  8.043154761904763 7.319444444444445  8.214285714285715 7.319444444444445  C 8.385416666666668 7.319444444444445  8.530877976190478 7.250578703703702  8.650669642857144 7.112847222222222  C 8.77046130952381 6.9751157407407405  8.830357142857144 6.807870370370369  8.830357142857144 6.611111111111111  C 8.830357142857144 5.765046296296296  9.091331845238095 5.041956018518518  9.61328125 4.441840277777778  C 10.135230654761907 3.8417245370370368  10.764136904761907 3.541666666666665  11.5 3.5416666666666674  C 11.671130952380953 3.541666666666665  11.816592261904765 3.4728009259259247  11.936383928571429 3.3350694444444446  Z M 22.74330357142857 7.481770833333333  C 22.914434523809526 7.826099537037036  23 8.165509259259258  23 8.5  C 23 8.834490740740739  22.914434523809526 9.173900462962964  22.74330357142857 9.518229166666666  C 21.54538690476191 11.780960648148147  19.934616815476197 13.593605324074076  17.91099330357143 14.956163194444445  C 15.887369791666668 16.318721064814813  13.750372023809526 17  11.5 17  C 9.249627976190478 17  7.112630208333334 16.316261574074076  5.089006696428572 14.948784722222223  C 3.0653831845238098 13.58130787037037  1.4546130952380956 11.771122685185183  0.2566964285714286 9.518229166666666  C 0.08556547619047619 9.173900462962964  0 8.834490740740739  0 8.5  C 0 8.165509259259258  0.08556547619047619 7.826099537037036  0.2566964285714286 7.481770833333333  C 1.4546130952380956 5.228877314814814  3.0653831845238098 3.418692129629629  5.089006696428572 2.0512152777777777  C 7.112630208333334 0.6837384259259246  9.249627976190478 0  11.5 0  C 13.750372023809526 0  15.887369791666668 0.6837384259259246  17.91099330357143 2.0512152777777777  C 19.934616815476197 3.418692129629629  21.54538690476191 5.228877314814814  22.74330357142857 7.481770833333333  Z " fill-rule="nonzero" fill="#000000" stroke="none" transform="matrix(1 0 0 1 922 150 )" />
  </g>
</svg>