<?xml version="1.0" encoding="utf-8"?>
<svg version="1.1" xmlns:xlink="http://www.w3.org/1999/xlink" width="22px" height="21px" xmlns="http://www.w3.org/2000/svg">
  <g transform="matrix(1 0 0 1 -1170 -148 )">
    <path d="M 21.48148148148148 15.696969696969695  C 21.82716049382716 16.026936026936024  22 16.427609427609426  22 16.8989898989899  C 22 17.370370370370374  21.82716049382716 17.771043771043768  21.48148148148148 18.1010101010101  L 18.962962962962962 20.505050505050505  C 18.61728395061729 20.835016835016837  18.19753086419753 21  17.703703703703702 21  C 17.20987654320988 21  16.790123456790127 20.835016835016837  16.444444444444446 20.505050505050505  L 11 15.30808080808081  L 5.555555555555556 20.505050505050505  C 5.2098765432098775 20.835016835016837  4.790123456790123 21  4.296296296296296 21  C 3.8024691358024696 21  3.3827160493827164 20.835016835016837  3.037037037037037 20.505050505050505  L 0.5185185185185185 18.1010101010101  C 0.17283950617283966 17.771043771043768  0 17.370370370370374  0 16.8989898989899  C 0 16.427609427609426  0.17283950617283966 16.026936026936024  0.5185185185185185 15.696969696969695  L 5.962962962962963 10.5  L 0.5185185185185185 5.303030303030302  C 0.17283950617283966 4.973063973063971  0 4.572390572390573  0 4.101010101010101  C 0 3.6296296296296293  0.17283950617283966 3.2289562289562257  0.5185185185185185 2.8989898989898997  L 3.037037037037037 0.49494949494949503  C 3.3827160493827164 0.16498316498316423  3.8024691358024696 0  4.296296296296296 0  C 4.790123456790123 0  5.2098765432098775 0.16498316498316423  5.555555555555556 0.49494949494949503  L 11 5.691919191919193  L 16.444444444444446 0.49494949494949503  C 16.790123456790127 0.16498316498316423  17.20987654320988 0  17.703703703703702 0  C 18.19753086419753 0  18.61728395061729 0.16498316498316423  18.962962962962962 0.49494949494949503  L 21.48148148148148 2.8989898989898997  C 21.82716049382716 3.2289562289562257  22 3.6296296296296293  22 4.101010101010101  C 22 4.572390572390573  21.82716049382716 4.973063973063971  21.48148148148148 5.303030303030302  L 16.037037037037035 10.5  L 21.48148148148148 15.696969696969695  Z " fill-rule="nonzero" fill="#000000" stroke="none" transform="matrix(1 0 0 1 1170 148 )" />
  </g>
</svg>