<?xml version="1.0" encoding="utf-8"?>
<svg version="1.1" xmlns:xlink="http://www.w3.org/1999/xlink" width="22px" height="20px" xmlns="http://www.w3.org/2000/svg">
  <g transform="matrix(1 0 0 1 -719 -228 )">
    <path d="M 13.4921875 12.265625  C 14.651241987179489 11.211939102564102  15.23076923076923 9.943910256410255  15.23076923076923 8.461538461538463  C 15.23076923076923 6.979166666666665  14.651241987179489 5.711137820512819  13.4921875 4.657451923076923  C 12.333133012820515 3.603766025641024  10.938301282051283 3.076923076923077  9.307692307692308 3.076923076923077  C 7.677083333333334 3.076923076923077  6.282251602564104 3.603766025641024  5.123197115384615 4.657451923076923  C 3.9641426282051286 5.711137820512819  3.384615384615385 6.979166666666665  3.384615384615385 8.461538461538463  C 3.384615384615385 9.943910256410255  3.9641426282051286 11.211939102564102  5.123197115384615 12.265625  C 6.282251602564104 13.319310897435894  7.677083333333334 13.846153846153847  9.307692307692308 13.846153846153847  C 10.938301282051283 13.846153846153847  12.333133012820515 13.319310897435894  13.4921875 12.265625  Z M 21.51081730769231 17.379807692307693  C 21.836939102564102 17.67628205128205  22 18.036858974358974  22 18.461538461538463  C 22 18.87820512820513  21.832532051282055 19.23878205128205  21.497596153846153 19.54326923076923  C 21.16266025641026 19.84775641025641  20.766025641025642 20  20.30769230769231 20  C 19.83173076923077 20  19.435096153846153 19.84775641025641  19.11778846153846 19.54326923076923  L 14.582932692307692 15.432692307692308  C 13.005208333333334 16.42628205128205  11.246794871794874 16.923076923076923  9.307692307692308 16.923076923076923  C 8.047275641025642 16.923076923076923  6.841947115384615 16.700721153846153  5.69170673076923 16.256009615384617  C 4.541466346153846 15.811298076923077  3.5498798076923075 15.210336538461537  2.7169471153846154 14.453125  C 1.8840144230769231 13.695913461538463  1.222956730769231 12.794471153846153  0.7337740384615384 11.748798076923077  C 0.24459134615384617 10.703125  0 9.607371794871792  0 8.461538461538463  C 0 7.315705128205126  0.24459134615384617 6.219951923076923  0.7337740384615384 5.174278846153846  C 1.222956730769231 4.128605769230768  1.8840144230769231 3.2271634615384626  2.7169471153846154 2.469951923076923  C 3.5498798076923075 1.7127403846153855  4.541466346153846 1.1117788461538458  5.69170673076923 0.6670673076923084  C 6.841947115384615 0.22235576923076872  8.047275641025642 0  9.307692307692308 0  C 10.568108974358974 0  11.7734375 0.22235576923076872  12.923677884615385 0.6670673076923084  C 14.07391826923077 1.1117788461538458  15.065504807692308 1.7127403846153855  15.8984375 2.469951923076923  C 16.73137019230769 3.2271634615384626  17.392427884615383 4.128605769230768  17.881610576923077 5.174278846153846  C 18.37079326923077 6.219951923076923  18.615384615384617 7.315705128205126  18.615384615384617 8.461538461538463  C 18.615384615384617 10.224358974358974  18.06891025641026 11.822916666666664  16.97596153846154 13.257211538461537  L 21.51081730769231 17.379807692307693  Z " fill-rule="nonzero" fill="#c2c2c2" stroke="none" transform="matrix(1 0 0 1 719 228 )" />
  </g>
</svg>