<?xml version="1.0" encoding="utf-8"?>
<svg version="1.1" xmlns:xlink="http://www.w3.org/1999/xlink" width="79px" height="25px" xmlns="http://www.w3.org/2000/svg">
  <defs>
    <mask fill="white" id="clip1">
      <path d="M 0 20  L 0 5  C 0 2.1999999999999886  2.2000000000000455 0  5 0  L 41.66666666666674 0  L 74 0  C 76.79999999999995 0  79 2.1999999999999886  79 5  L 79 20  C 79 22.80000000000001  76.79999999999995 25  74 25  L 5 25  C 2.2000000000000455 25  0 22.80000000000001  0 20  Z " fill-rule="evenodd" />
    </mask>
  </defs>
  <g transform="matrix(1 0 0 1 -1137 -228 )">
    <path d="M 0 20  L 0 5  C 0 2.1999999999999886  2.2000000000000455 0  5 0  L 41.66666666666674 0  L 74 0  C 76.79999999999995 0  79 2.1999999999999886  79 5  L 79 20  C 79 22.80000000000001  76.79999999999995 25  74 25  L 5 25  C 2.2000000000000455 25  0 22.80000000000001  0 20  Z " fill-rule="nonzero" fill="#ffffff" stroke="none" transform="matrix(1 0 0 1 1137 228 )" />
    <path d="M 0 20  L 0 5  C 0 2.1999999999999886  2.2000000000000455 0  5 0  L 41.66666666666674 0  L 74 0  C 76.79999999999995 0  79 2.1999999999999886  79 5  L 79 20  C 79 22.80000000000001  76.79999999999995 25  74 25  L 5 25  C 2.2000000000000455 25  0 22.80000000000001  0 20  Z " stroke-width="2" stroke="#797979" fill="none" transform="matrix(1 0 0 1 1137 228 )" mask="url(#clip1)" />
  </g>
</svg>